Coordinates
version=1
nRows=16
nColumns=22
inDegrees=yes

Units are S.I. units (second, meters, Newtons, ...)
If the header above contains a line with 'inDegrees', this indicates whether rotational values are in degrees (yes) or radians (no).

endheader
time	pelvis_tilt	pelvis_list	pelvis_rotation	pelvis_tx	pelvis_ty	pelvis_tz	hip_flexion_r	hip_adduction_r	hip_rotation_r	knee_angle_r	ankle_angle_r	subtalar_angle_r	hip_flexion_l	hip_adduction_l	hip_rotation_l	knee_angle_l	ankle_angle_l	subtalar_angle_l	lumbar_extension	lumbar_bending	lumbar_rotation
      1.38000000	     -0.88388525	     -3.64455953	      5.10999832	     -0.64443011	      1.06829800	      1.22337338	     -1.14034019	      7.28374913	     -2.04727642	    -13.48214937	     16.33397458	     -6.10246594	     22.44390388	     -4.06421232	      6.71225628	    -50.82258825	      8.64129538	     -1.66076425	     -6.28406873	      1.73094796	     -1.69542553
      1.39000000	     -0.97066801	     -3.50856085	      5.10773436	     -0.64261059	      1.06825247	      1.22408625	     -1.21951557	      7.18129153	     -2.05531621	    -13.38444511	     16.39520136	     -6.11165043	     23.30551577	     -3.78879619	      6.25870315	    -51.21371096	      8.87635399	     -1.86058159	     -6.43051512	      1.55777216	     -1.53672872
      1.40000000	     -1.06310413	     -3.35781386	      5.09788923	     -0.64064225	      1.06819941	      1.22478005	     -1.29886489	      7.06197318	     -2.06436003	    -13.29438667	     16.46369583	     -6.11808293	     24.11821719	     -3.51119252	      5.76779496	    -51.36381173	      9.14097177	     -1.97991766	     -6.56924967	      1.36155587	     -1.38369525
      1.41000000	     -1.16250092	     -3.19577914	      5.07363852	     -0.63853226	      1.06812235	      1.22544013	     -1.37453176	      6.92733374	     -2.07106310	    -13.21502328	     16.54332236	     -6.12601044	     24.88185823	     -3.23121864	      5.25107858	    -51.27919526	      9.40643633	     -2.03022869	     -6.69935268	      1.15409270	     -1.23798730
      1.42000000	     -1.26610530	     -3.02533773	      5.03672324	     -0.63628032	      1.06801667	      1.22608072	     -1.44932231	      6.78202265	     -2.07299922	    -13.14568267	     16.63665243	     -6.13846932	     25.59146551	     -2.95304892	      4.71690610	    -50.96314967	      9.65884124	     -2.01974381	     -6.82340083	      0.93529813	     -1.09724419
      1.43000000	     -1.36876804	     -2.84623540	      4.98800752	     -0.63387928	      1.06788221	      1.22669926	     -1.52999960	      6.62617719	     -2.06922267	    -13.08529751	     16.74709968	     -6.15675922	     26.23895496	     -2.67526778	      4.17330934	    -50.42326682	      9.89551246	     -1.95897000	     -6.94639468	      0.70483160	     -0.95466169
      1.44000000	     -1.46762063	     -2.66059139	      4.92935907	     -0.63132365	      1.06771722	      1.22729786	     -1.62087249	      6.46292150	     -2.05304728	    -13.03164923	     16.86645959	     -6.18550615	     26.82313937	     -2.40211737	      3.61992142	    -49.67421069	     10.10649414	     -1.85484582	     -7.07007036	      0.46662983	     -0.81451373
      1.45000000	     -1.56122494	     -2.46729074	      4.86145040	     -0.62860305	      1.06752389	      1.22786320	     -1.72595917	      6.29019470	     -2.02241365	    -12.98288913	     16.99244409	     -6.22905103	     27.34143417	     -2.13321377	      3.05329453	    -48.72673750	     10.28877270	     -1.71169266	     -7.19311758	      0.22105959	     -0.67534429
      1.46000000	     -1.65138377	     -2.26411834	      4.78568949	     -0.62571765	      1.06729926	      1.22840545	     -1.84435984	      6.10618134	     -1.97683804	    -12.93612059	     17.11907148	     -6.28808443	     27.79911169	     -1.86813740	      2.46954105	    -47.60020673	     10.44105150	     -1.53213623	     -7.31510844	     -0.03620855	     -0.53859141
      1.47000000	     -1.73336884	     -2.05475124	      4.70111826	     -0.62265736	      1.06704638	      1.22892745	     -1.98208066	      5.91527525	     -1.91612798	    -12.89073720	     17.24937317	     -6.36361149	     28.19338647	     -1.61331215	      1.86103463	    -46.31196240	     10.55257747	     -1.30050708	     -7.43777236	     -0.30266292	     -0.40730585
      1.48000000	     -1.81504237	     -1.83900805	      4.61380091	     -0.61941710	      1.06675350	      1.22938811	     -2.13096694	      5.71364963	     -1.85226025	    -12.84547777	     17.38585554	     -6.43861198	     28.53434435	     -1.36298043	      1.22958096	    -44.88121394	     10.63295537	     -1.02018149	     -7.55000742	     -0.57059692	     -0.28119194
      1.49000000	     -1.85752766	     -1.61813900	      4.51812792	     -0.61598644	      1.06648388	      1.22982438	     -2.34007476	      5.50932523	     -1.75999626	    -12.78531701	     17.50373291	     -6.52259937	     28.77751949	     -1.12838505	      0.56574783	    -43.32159625	     10.70590465	     -0.59219188	     -7.69938747	     -0.84009179	     -0.18043182
      1.50000000	     -1.96161101	     -1.39219444	      4.42201107	     -0.61238705	      1.06605970	      1.23018313	     -2.47793022	      5.28604770	     -1.71612812	    -12.75301379	     17.69102684	     -6.54752889	     29.03950927	     -0.88111092	     -0.09811593	    -41.66240250	     10.71318023	     -0.23154824	     -7.76155176	     -1.12015844	     -0.05658236
      1.51000000	     -1.99248676	     -1.16799533	      4.32093689	     -0.60857593	      1.06571387	      1.23048963	     -2.72438843	      5.06974814	     -1.62607464	    -12.68370761	     17.83351912	     -6.55034001	     29.16931742	     -0.65272196	     -0.78407599	    -39.91188128	     10.74620484	      0.35987169	     -7.89787210	     -1.38502099	      0.03691413
      1.52000000	     -2.09926919	     -0.94101254	      4.22215777	     -0.60462338	      1.06517693	      1.23072026	     -2.87352507	      4.83661997	     -1.58611923	    -12.66042575	     18.06219528	     -6.51883865	     29.34667237	     -0.41165272	     -1.47395854	    -38.10938468	     10.67822294	      0.81180493	     -7.93383934	     -1.65782802	      0.13254274
      1.53000000	     -2.13618955	     -0.71663902	      4.12439406	     -0.60045444	      1.06471337	      1.23087113	     -3.12956784	      4.60891384	     -1.50782993	    -12.59675120	     18.23122271	     -6.43252724	     29.39818042	     -0.17151447	     -2.14237109	    -36.24970009	     10.64460703	      1.47854490	     -8.03891432	     -1.91305885	      0.20194095
